<svg xmlns="http://www.w3.org/2000/svg" xmlns:xlink="http://www.w3.org/1999/xlink" viewBox="0 0 385.73 125.01"><defs><style>.cls-1{fill:#b5b5b6;}.cls-1,.cls-4{stroke:#c9caca;stroke-miterlimit:10;}.cls-2{fill:url(#名称未設定グラデーション_39);}.cls-3{fill:url(#名称未設定グラデーション_62);}.cls-4{stroke-width:0.25px;fill:url(#名称未設定グラデーション_25);}</style><linearGradient id="名称未設定グラデーション_39" x1="66.62" y1="7.54" x2="100.93" y2="56.12" gradientUnits="userSpaceOnUse"><stop offset="0" stop-color="#b5b5b6"/><stop offset="0.48" stop-color="#b3b3b4"/><stop offset="0.66" stop-color="#adacad"/><stop offset="0.78" stop-color="#a1a1a2"/><stop offset="0.88" stop-color="#919091"/><stop offset="0.97" stop-color="#7c7b7b"/><stop offset="1" stop-color="#727171"/></linearGradient><linearGradient id="名称未設定グラデーション_62" x1="67.06" y1="7.54" x2="98.91" y2="53.94" gradientUnits="userSpaceOnUse"><stop offset="0" stop-color="#b5b5b6"/><stop offset="0.4" stop-color="#d8d8d9"/><stop offset="0.71" stop-color="#efefef"/><stop offset="0.75" stop-color="#e8e8e8"/><stop offset="1" stop-color="#b5b5b6"/></linearGradient><linearGradient id="名称未設定グラデーション_25" x1="131.06" y1="172.52" x2="241.08" y2="-18.04" gradientUnits="userSpaceOnUse"><stop offset="0" stop-color="#9fa0a0"/><stop offset="0.09" stop-color="#adadad"/><stop offset="0.36" stop-color="#d1d1d1"/><stop offset="0.57" stop-color="#e7e7e7"/><stop offset="0.71" stop-color="#efefef"/><stop offset="0.79" stop-color="#ebebeb"/><stop offset="0.86" stop-color="#dededf"/><stop offset="0.94" stop-color="#cacaca"/><stop offset="1" stop-color="#b5b5b6"/></linearGradient></defs><title>アセット 5</title><g id="レイヤー_2" data-name="レイヤー 2"><g id="レイヤー_1-2" data-name="レイヤー 1"><path class="cls-1" d="M121.39,102.24v-43h3.32l.61,7.29a19.8,19.8,0,0,1,7-5.9,20.28,20.28,0,0,1,9.6-2.48h1.39v4h-1.39a18.6,18.6,0,0,0-9.53,2.7,18.15,18.15,0,0,0-6.89,7v30.3Z"/><path class="cls-1" d="M121.43,102.2V59.32h3.24l.62,7.37a19.51,19.51,0,0,1,7-6,20.21,20.21,0,0,1,9.58-2.48h1.35v3.93h-1.35a18.65,18.65,0,0,0-9.55,2.71,18.19,18.19,0,0,0-6.91,7V102.2Z"/><path class="cls-1" d="M121.56,102.07V59.45h3l.64,7.56h0a19.4,19.4,0,0,1,7.13-6.19,20.21,20.21,0,0,1,9.52-2.46h1.22V62h-1.22a18.69,18.69,0,0,0-9.61,2.73,18.23,18.23,0,0,0-7,7.13v30.17Z"/><path class="cls-1" d="M170.85,103.38c-5.83,0-10.56-2.07-14-6.16s-5.24-9.58-5.24-16.37,1.77-12.36,5.26-16.46a17.58,17.58,0,0,1,14-6.2c5.84,0,10.54,2.08,14,6.18S190,74,190,80.85c0,6.67-1.78,12.15-5.29,16.28A17.41,17.41,0,0,1,170.85,103.38Zm0-41.45a13.37,13.37,0,0,0-11,5.07c-2.7,3.38-4.07,8-4.07,13.85s1.35,10.37,4,13.71a14.47,14.47,0,0,0,21.91,0c2.66-3.33,4-8,4-13.74s-1.36-10.44-4-13.83A13.21,13.21,0,0,0,170.85,61.93Z"/><path class="cls-1" d="M170.85,103.33c-5.82,0-10.54-2.06-14-6.13s-5.23-9.57-5.23-16.35,1.77-12.34,5.26-16.44a17.53,17.53,0,0,1,14-6.18c5.83,0,10.52,2.07,14,6.16S190,74,190,80.85c0,6.66-1.77,12.13-5.27,16.25A17.34,17.34,0,0,1,170.85,103.33Zm0-41.44a13.41,13.41,0,0,0-11,5.08c-2.71,3.39-4.09,8.06-4.09,13.88s1.36,10.39,4,13.74a13.44,13.44,0,0,0,11,5,13.3,13.3,0,0,0,10.94-5c2.66-3.34,4-8,4-13.76S184.44,70.4,181.74,67A13.23,13.23,0,0,0,170.85,61.89Z"/><path class="cls-1" d="M170.85,103.21c-5.78,0-10.47-2-13.92-6.1s-5.2-9.51-5.2-16.26S153.49,68.57,157,64.5a17.41,17.41,0,0,1,13.9-6.14c5.79,0,10.45,2,13.86,6.11s5.13,9.57,5.13,16.38c0,6.63-1.77,12.07-5.25,16.17A17.2,17.2,0,0,1,170.85,103.21Zm0-41.44a13.52,13.52,0,0,0-11.1,5.13c-2.73,3.4-4.11,8.1-4.11,13.95S157,91.29,159.7,94.67a13.57,13.57,0,0,0,11.15,5.08,13.43,13.43,0,0,0,11-5.06c2.68-3.36,4-8,4-13.84s-1.38-10.51-4.09-13.93A13.35,13.35,0,0,0,170.85,61.77Z"/><path class="cls-1" d="M217.87,124.51a37.51,37.51,0,0,1-7.24-.67,18.19,18.19,0,0,1-5.16-1.68l-.11-.06v-4.47l.31.15a31.25,31.25,0,0,0,6,2.31,27.16,27.16,0,0,0,6.46.67c5.26,0,9.25-1.41,11.87-4.2s3.95-7,3.95-12.67V97.82a17.31,17.31,0,0,1-5.46,3.92,17.61,17.61,0,0,1-7.58,1.64c-5.75,0-10.33-2-13.62-6s-4.95-9.46-4.95-16.37c0-7.06,1.73-12.69,5.13-16.73s8.24-6.11,14.35-6.11a14.35,14.35,0,0,1,7.55,1.87,21.84,21.84,0,0,1,4.79,3.82l.54-4.6H238V104c0,4.83-.76,8.77-2.28,11.68A14.87,14.87,0,0,1,229,122.3,25,25,0,0,1,217.87,124.51Zm3.83-62.58c-4.74,0-8.49,1.7-11.13,5.05s-4,8.06-4,14,1.28,10.62,3.8,13.83,6.2,4.82,11,4.82A15.52,15.52,0,0,0,228,98a19.19,19.19,0,0,0,5.92-4.4V68.33a14.91,14.91,0,0,0-5.18-4.44A14.34,14.34,0,0,0,221.7,61.93Z"/><path class="cls-1" d="M217.87,124.47a37.33,37.33,0,0,1-7.23-.67,18.1,18.1,0,0,1-5.15-1.68l-.08-.05V117.7l.24.12a31.06,31.06,0,0,0,6,2.31,26.74,26.74,0,0,0,6.47.67c5.27,0,9.27-1.41,11.9-4.21s4-7.07,4-12.7V97.71a16.85,16.85,0,0,1-5.52,4,17.7,17.7,0,0,1-7.56,1.63c-5.74,0-10.31-2-13.59-6s-4.94-9.45-4.94-16.35,1.73-12.67,5.12-16.71,8.22-6.09,14.32-6.09a14.3,14.3,0,0,1,7.53,1.87A22.15,22.15,0,0,1,234.17,64l.54-4.65h3.23V104c0,4.83-.77,8.75-2.27,11.66a15,15,0,0,1-6.73,6.61A24.88,24.88,0,0,1,217.87,124.47Zm3.83-62.58c-4.76,0-8.51,1.7-11.17,5.06s-4,8.08-4,14,1.28,10.64,3.81,13.86,6.22,4.83,11,4.83A15.51,15.51,0,0,0,228,98,19,19,0,0,0,234,93.58V68.33a14.87,14.87,0,0,0-5.2-4.48A14.45,14.45,0,0,0,221.7,61.89Z"/><path class="cls-1" d="M217.87,124.34a37,37,0,0,1-7.2-.66,17.89,17.89,0,0,1-5.12-1.67h0v-4.1l.06,0a30.71,30.71,0,0,0,6,2.32,27,27,0,0,0,6.5.68c10.61,0,16-5.73,16-17V97.52H234a16.94,16.94,0,0,1-5.58,4.07,17.61,17.61,0,0,1-7.51,1.62c-5.7,0-10.24-2-13.49-5.91s-4.91-9.4-4.91-16.27,1.71-12.61,5.09-16.62,8.16-6,14.22-6a14.11,14.11,0,0,1,7.46,1.85,21.45,21.45,0,0,1,4.9,3.93h.12l.55-4.69h3V104c0,4.81-.76,8.71-2.26,11.61a14.81,14.81,0,0,1-6.66,6.55A24.83,24.83,0,0,1,217.87,124.34Zm3.83-62.57c-4.8,0-8.59,1.71-11.27,5.1s-4,8.13-4,14.07,1.29,10.69,3.84,13.93,6.28,4.88,11.1,4.88a15.76,15.76,0,0,0,6.75-1.63,19.21,19.21,0,0,0,6-4.49V68.28a15.09,15.09,0,0,0-5.27-4.54A14.54,14.54,0,0,0,221.7,61.77Z"/><path class="cls-1" d="M267.26,103.38c-4.2,0-7.62-1.14-10.18-3.38s-3.88-5.67-3.88-10.18a12,12,0,0,1,4.2-9.49,16,16,0,0,1,10.77-3.61A38.77,38.77,0,0,1,281,79.14V74c0-4-1-7-3.08-9s-5.37-3-9.87-3a35.73,35.73,0,0,0-10.87,2.13l-.27.1V60.33l.1-.06a15.13,15.13,0,0,1,4.64-1.46,34.25,34.25,0,0,1,6.4-.62c5.7,0,10,1.32,12.8,3.93s4.21,6.6,4.21,11.85V88.41c0,3,.12,7.58.37,13.61v.22h-3.68l-.62-4.87a18.38,18.38,0,0,1-6,4.17A18.88,18.88,0,0,1,267.26,103.38Zm.45-22.87c-3.24,0-5.8.82-7.62,2.43a8.76,8.76,0,0,0-2.73,6.88c0,3.33.91,5.82,2.7,7.43a10.47,10.47,0,0,0,7.2,2.43,15.71,15.71,0,0,0,8.13-1.93A24.75,24.75,0,0,0,281,93.16V82.77a39.74,39.74,0,0,0-6-1.74A41.43,41.43,0,0,0,267.71,80.51Z"/><path class="cls-1" d="M267.26,103.33c-4.19,0-7.6-1.13-10.16-3.36s-3.86-5.65-3.86-10.15a11.94,11.94,0,0,1,4.18-9.46,15.92,15.92,0,0,1,10.75-3.59,38.51,38.51,0,0,1,12.9,2.43V74c0-4-1-7-3.09-9s-5.39-3-9.9-3A35.73,35.73,0,0,0,257.2,64l-.22.08V60.35l.08-.05a15.28,15.28,0,0,1,4.63-1.45,34.06,34.06,0,0,1,6.39-.62c5.69,0,10,1.32,12.77,3.92s4.2,6.58,4.2,11.82V88.41c0,3,.12,7.59.36,13.61v.18h-3.6l-.63-4.93a18.4,18.4,0,0,1-6.08,4.23A18.74,18.74,0,0,1,267.26,103.33Zm.45-22.86c-3.25,0-5.82.82-7.65,2.44a8.8,8.8,0,0,0-2.75,6.91c0,3.34.92,5.85,2.73,7.46a10.47,10.47,0,0,0,7.22,2.44,15.68,15.68,0,0,0,8.15-1.94,24.46,24.46,0,0,0,5.66-4.61V82.74a39,39,0,0,0-6-1.75A41.55,41.55,0,0,0,267.71,80.47Z"/><path class="cls-1" d="M267.26,103.21c-4.15,0-7.54-1.12-10.07-3.34s-3.82-5.59-3.82-10.05a11.82,11.82,0,0,1,4.14-9.37,15.83,15.83,0,0,1,10.66-3.56,38.72,38.72,0,0,1,13,2.49V74c0-4-1.06-7.07-3.13-9.12s-5.44-3.08-10-3.08a35.71,35.71,0,0,0-10.92,2.13l-.06,0v-3.5h0a15.46,15.46,0,0,1,4.6-1.44,33.73,33.73,0,0,1,6.36-.61c5.66,0,9.93,1.3,12.69,3.88s4.15,6.53,4.15,11.73V88.41c0,3,.13,7.59.37,13.62v0h-3.36l-.64-5h-.12a17.91,17.91,0,0,1-6.11,4.27A18.68,18.68,0,0,1,267.26,103.21Zm.45-22.86c-3.28,0-5.88.83-7.73,2.47a8.9,8.9,0,0,0-2.79,7c0,3.37.93,5.92,2.76,7.55a10.61,10.61,0,0,0,7.31,2.47,15.85,15.85,0,0,0,8.22-2,24.77,24.77,0,0,0,5.72-4.67V82.66a38.65,38.65,0,0,0-6.1-1.79A40.79,40.79,0,0,0,267.71,80.35Z"/><path class="cls-1" d="M331.6,102.24V74.43c0-4.18-.81-7.35-2.42-9.41s-4.23-3.09-7.85-3.09a13.45,13.45,0,0,0-7.4,2.36,21.39,21.39,0,0,0-6.19,6.39v31.56h-4.07v-43H307l.61,6.66a20,20,0,0,1,6.13-5.61,15.9,15.9,0,0,1,8.05-2.14c4.53,0,8,1.36,10.34,4s3.49,6.63,3.49,11.75v28.27Z"/><path class="cls-1" d="M331.64,102.2V74.43c0-4.19-.82-7.37-2.42-9.44s-4.25-3.1-7.89-3.1a13.49,13.49,0,0,0-7.42,2.36,21.72,21.72,0,0,0-6.21,6.4V102.2h-4V59.32H307l.62,6.74a19.84,19.84,0,0,1,6.18-5.69,15.86,15.86,0,0,1,8-2.14c4.52,0,8,1.35,10.3,4s3.48,6.61,3.48,11.72V102.2Z"/><path class="cls-1" d="M331.77,102.07V74.43c0-4.22-.83-7.42-2.45-9.52s-4.31-3.14-8-3.14a13.55,13.55,0,0,0-7.49,2.38,21.61,21.61,0,0,0-6.27,6.48v31.44h-3.73V59.45h3l.64,6.92h0a20,20,0,0,1,6.31-5.89,15.72,15.72,0,0,1,8-2.12c4.48,0,7.92,1.33,10.21,4s3.45,6.56,3.45,11.64v28.1Z"/><path class="cls-1" d="M371.49,103.38c-6.65,0-11.85-2-15.45-6s-5.43-9.73-5.43-17A27.54,27.54,0,0,1,353,68.6a18.27,18.27,0,0,1,6.45-7.71,16.52,16.52,0,0,1,9.22-2.7c5,0,9.09,1.67,12.09,5s4.52,8.53,4.52,15.56v1.8H354.85c0,6.52,1.5,11.37,4.36,14.43s7,4.65,12.28,4.65a28.15,28.15,0,0,0,11.94-2.4l.3-.14v3.87l-.11.06C380.78,102.57,376.7,103.38,371.49,103.38Zm9.58-26.56c-.12-4.87-1.22-8.61-3.27-11.14s-5.16-3.84-9.18-3.84a12.17,12.17,0,0,0-9.36,4.24A17.82,17.82,0,0,0,355,76.82Z"/><path class="cls-1" d="M371.49,103.33c-6.63,0-11.82-2-15.42-6s-5.42-9.71-5.42-17A27.48,27.48,0,0,1,353,68.62a18.26,18.26,0,0,1,6.43-7.7,16.53,16.53,0,0,1,9.2-2.69c5,0,9.07,1.67,12.06,5s4.51,8.51,4.51,15.53v1.76H354.81c0,6.55,1.5,11.43,4.37,14.5s7,4.66,12.31,4.66a28.28,28.28,0,0,0,12-2.4l.24-.11v3.78l-.09,0C380.76,102.53,376.69,103.33,371.49,103.33Zm9.62-26.47c-.11-4.9-1.21-8.66-3.28-11.21s-5.18-3.85-9.21-3.85a12.21,12.21,0,0,0-9.39,4.25,17.83,17.83,0,0,0-4.31,10.81Z"/><path class="cls-1" d="M371.49,103.21c-6.6,0-11.76-2-15.33-6s-5.38-9.66-5.38-16.93a27.4,27.4,0,0,1,2.32-11.63A18.14,18.14,0,0,1,359.49,61a16.36,16.36,0,0,1,9.13-2.67c5,0,9,1.65,12,4.91s4.47,8.45,4.47,15.44v1.64H354.69c0,6.64,1.48,11.59,4.4,14.7s7.1,4.7,12.4,4.7a28.32,28.32,0,0,0,12-2.41l.06,0v3.5h0C380.72,102.41,376.67,103.21,371.49,103.21ZM381.24,77c-.09-5-1.21-8.82-3.31-11.4s-5.24-3.91-9.31-3.91A12.33,12.33,0,0,0,359.14,66a18,18,0,0,0-4.36,11Z"/><circle class="cls-2" cx="82.3" cy="29.74" r="29.74"/><circle class="cls-3" cx="82.3" cy="29.74" r="28.14"/><path class="cls-4" d="M.49,97.13V91.34q3,1.81,9.66,3.5a47,47,0,0,0,11.1,1.69q10.88,0,16.88-4t6-13.77A13.94,13.94,0,0,0,36.59,65.5c-2.34-1.29-6.52-2.75-12.56-4.41a95.62,95.62,0,0,1-12.62-4,19.5,19.5,0,0,1-8-6.1Q.12,46.92.13,39.9q0-10.08,7.27-16.17t19-6.1a51.68,51.68,0,0,1,15.09,2.23,57.48,57.48,0,0,1,5.31,2.24v5.79c-2.45-1.13-4.56-2-6.31-2.75A39.46,39.46,0,0,0,34.2,23.3a42.28,42.28,0,0,0-8.12-.84q-10.44,0-15.48,4.83t-5,12.86q0,5.07,2.2,8a14,14,0,0,0,6,4.47A96.84,96.84,0,0,0,24.88,56.2a114.49,114.49,0,0,1,13,4.26,20.64,20.64,0,0,1,8.18,6.28q3.46,4.32,3.47,11.74,0,10.88-7.46,16.93t-21.22,6.07A49.52,49.52,0,0,1,9.06,100,38.38,38.38,0,0,1,.49,97.13ZM84.22,71.91H79.54v29.7h4.68Zm40.3-12.42.63,7.56h.1a19.12,19.12,0,0,1,7.12-6.19,20,20,0,0,1,9.5-2.46h1.18V62h-1.18a18.67,18.67,0,0,0-9.63,2.73,18.1,18.1,0,0,0-7,7.15V102H121.6V59.49Zm27.25,21.36q0-10.2,5.21-16.33a17.32,17.32,0,0,1,13.87-6.12q8.7,0,13.82,6.1t5.13,16.35q0,10-5.24,16.14a17.1,17.1,0,0,1-13.71,6.18q-8.7,0-13.89-6.08T151.77,80.85Zm34.2,0q0-8.79-4.1-14a13.34,13.34,0,0,0-11-5.17,13.51,13.51,0,0,0-11.13,5.15q-4.12,5.14-4.12,14t4.07,13.85a14.7,14.7,0,0,0,22.25,0Q186,89.64,186,80.85ZM205.57,122v-4a31.68,31.68,0,0,0,6,2.32,27,27,0,0,0,6.51.68q16,0,16-17.08V97.47H234a16.75,16.75,0,0,1-5.58,4.08,17.38,17.38,0,0,1-7.49,1.62q-8.56,0-13.46-5.9T202.52,81q0-10.56,5.08-16.6t14.19-6a14.06,14.06,0,0,1,7.44,1.84,21.74,21.74,0,0,1,4.9,3.94h.18l.55-4.69h2.91V104q0,7.23-2.25,11.59a14.75,14.75,0,0,1-6.65,6.53,24.57,24.57,0,0,1-11,2.19,37,37,0,0,1-7.2-.66A17.73,17.73,0,0,1,205.57,122Zm28.56-28.32V68.28a15.1,15.1,0,0,0-5.28-4.58,14.59,14.59,0,0,0-7.15-2q-7.24,0-11.3,5.13t-4.05,14.09q0,9.06,3.85,14t11.13,4.9a15.64,15.64,0,0,0,6.76-1.64A19.32,19.32,0,0,0,234.13,93.65Zm19.28-3.83a11.73,11.73,0,0,1,4.12-9.33,15.73,15.73,0,0,1,10.64-3.56,38.5,38.5,0,0,1,13.07,2.51V74q0-6-3.14-9.15t-10-3.1a35.81,35.81,0,0,0-10.93,2.14V60.45A14.83,14.83,0,0,1,261.72,59a33.73,33.73,0,0,1,6.36-.61q8.51,0,12.66,3.87T284.88,74V88.41q0,4.52.37,13.62H282l-.64-5h-.18a17.73,17.73,0,0,1-6.11,4.28,18.44,18.44,0,0,1-7.78,1.83q-6.24,0-10.05-3.33T253.41,89.82Zm27.83,3.42V82.63a39,39,0,0,0-6.13-1.8,40.68,40.68,0,0,0-7.4-.53q-5,0-7.76,2.49a8.89,8.89,0,0,0-2.8,7q0,5.1,2.77,7.58a10.6,10.6,0,0,0,7.34,2.49,15.9,15.9,0,0,0,8.24-2A24.79,24.79,0,0,0,281.24,93.24Zm25.57-33.75.63,6.92h.09a19.8,19.8,0,0,1,6.31-5.89,15.55,15.55,0,0,1,8-2.12q6.73,0,10.18,4T335.41,74V102h-3.6V74.43q0-6.37-2.46-9.54t-8-3.17a13.55,13.55,0,0,0-7.51,2.39,21.82,21.82,0,0,0-6.29,6.49V102h-3.64V59.49Zm44,20.81a27.12,27.12,0,0,1,2.32-11.61,18,18,0,0,1,6.38-7.63,16.26,16.26,0,0,1,9.11-2.66q7.46,0,11.93,4.89T385,78.71V80.3H354.64q0,10.07,4.42,14.78t12.43,4.72a28.24,28.24,0,0,0,12-2.42v3.42c-2.83,1.58-6.83,2.37-12,2.37q-9.93,0-15.3-6T350.82,80.3Zm17.81-18.67a12.3,12.3,0,0,0-9.52,4.31A18,18,0,0,0,354.74,77h26.55c-.1-5-1.2-8.87-3.33-11.48S372.72,61.63,368.63,61.63Z"/></g></g></svg>