<svg xmlns="http://www.w3.org/2000/svg" xmlns:xlink="http://www.w3.org/1999/xlink" viewBox="0 0 112.03 101.74">
    <defs>
        <style>
            .cls-1{fill:url(#名称未設定グラデーション_39);}.cls-2{fill:url(#名称未設定グラデーション_62);}.cls-3,.cls-4{stroke:#c9caca;stroke-miterlimit:10;stroke-width:0.25px;}.cls-3{fill:url(#名称未設定グラデーション_25);}.cls-4{fill:url(#名称未設定グラデーション_25-2);}
        </style>
        <linearGradient id="名称未設定グラデーション_39" x1="66.62" y1="7.54" x2="100.93" y2="56.12" gradientUnits="userSpaceOnUse">
            <stop offset="0" stop-color="#b5b5b6"/>
            <stop offset="0.48" stop-color="#b3b3b4"/>
            <stop offset="0.66" stop-color="#adacad"/>
            <stop offset="0.78" stop-color="#a1a1a2"/>
            <stop offset="0.88" stop-color="#919091"/>
            <stop offset="0.97" stop-color="#7c7b7b"/>
            <stop offset="1" stop-color="#727171"/>
        </linearGradient>
        <linearGradient id="名称未設定グラデーション_62" x1="67.06" y1="7.54" x2="98.91" y2="53.94" gradientUnits="userSpaceOnUse">
            <stop offset="0" stop-color="#b5b5b6"/>
            <stop offset="0.4" stop-color="#d8d8d9"/>
            <stop offset="0.71" stop-color="#efefef"/>
            <stop offset="0.75" stop-color="#e8e8e8"/>
            <stop offset="1" stop-color="#b5b5b6"/>
        </linearGradient>
        <linearGradient id="名称未設定グラデーション_25" x1="2.44" y1="98.26" x2="112.47" y2="-92.3" gradientUnits="userSpaceOnUse">
            <stop offset="0" stop-color="#9fa0a0"/>
            <stop offset="0.09" stop-color="#adadad"/>
            <stop offset="0.36" stop-color="#d1d1d1"/>
            <stop offset="0.57" stop-color="#e7e7e7"/>
            <stop offset="0.71" stop-color="#efefef"/>
            <stop offset="0.79" stop-color="#ebebeb"/>
            <stop offset="0.86" stop-color="#dededf"/>
            <stop offset="0.94" stop-color="#cacaca"/>
            <stop offset="1" stop-color="#b5b5b6"/>
        </linearGradient>
        <linearGradient id="名称未設定グラデーション_25-2" x1="57.04" y1="129.79" x2="167.06" y2="-60.78"
                        xlink:href="#名称未設定グラデーション_25"/>
    </defs>
    <title>アセット 1</title>
    <g id="レイヤー_2" data-name="レイヤー 2">
        <g id="レイヤー_1-2" data-name="レイヤー 1">
            <circle class="cls-1" cx="82.3" cy="29.74" r="29.74"/>
            <circle class="cls-2" cx="82.3" cy="29.74" r="28.14"/>
            <path class="cls-3"
                  d="M37.92,60.46a114.49,114.49,0,0,0-13-4.26,96.84,96.84,0,0,1-11.17-3.62,14,14,0,0,1-6-4.47q-2.2-2.89-2.2-8,0-8,5-12.86t15.48-4.83a42.28,42.28,0,0,1,8.12.84,39.46,39.46,0,0,1,6.34,1.84c1.75.71,3.86,1.62,6.31,2.75V22.1a57.48,57.48,0,0,0-5.31-2.24,51.68,51.68,0,0,0-15.09-2.23q-11.77,0-19,6.1T.13,39.9q0,7,3.26,11.14a19.5,19.5,0,0,0,8,6.1,95.62,95.62,0,0,0,12.62,4c6,1.66,10.22,3.12,12.56,4.41a13.94,13.94,0,0,1,7.54,13.22q0,9.72-6,13.77t-16.88,4a47,47,0,0,1-11.1-1.69q-6.71-1.7-9.66-3.5v5.79A38.38,38.38,0,0,0,9.06,100a49.52,49.52,0,0,0,11.83,1.51q13.77,0,21.22-6.07t7.46-16.93q0-7.42-3.47-11.74A20.64,20.64,0,0,0,37.92,60.46Z"/>
            <rect class="cls-4" x="79.54" y="71.91" width="4.68" height="29.7"/>
        </g>
    </g>
</svg>